<svg version="1.1" id="Layer_1" xmlns="http://www.w3.org/2000/svg" xmlns:xlink="http://www.w3.org/1999/xlink" x="0px" y="0px"
	 width="100%" viewBox="0 0 512 512" enable-background="new 0 0 512 512" xml:space="preserve">
<path fill="#888888" opacity="1.000000" stroke="none" 
	d="
M1.000001,476.000000 
	C1.000000,330.309265 1.000000,184.618515 1.291265,38.796486 
	C2.018265,38.187057 2.682948,37.779926 2.856494,37.220451 
	C8.207292,19.970646 19.606861,8.722383 36.607727,2.930482 
	C37.219982,2.721897 37.542465,1.662744 38.000000,1.000000 
	C183.690750,1.000000 329.381500,1.000000 475.203522,1.291260 
	C475.813019,2.018206 476.220184,2.682785 476.779694,2.856370 
	C494.028839,8.207914 505.276184,19.608355 511.069305,36.607872 
	C511.277954,37.220127 512.337219,37.542515 513.000000,38.000000 
	C513.000000,183.690750 513.000000,329.381500 512.708740,475.203491 
	C511.981781,475.812958 511.317230,476.220154 511.143646,476.779633 
	C505.792297,494.028992 494.391632,505.276154 477.392120,511.069305 
	C476.779846,511.277954 476.457489,512.337158 476.000000,513.000000 
	C330.309265,513.000000 184.618515,513.000000 38.796486,512.708740 
	C38.187057,511.981750 37.779942,511.317047 37.220470,511.143494 
	C19.970617,505.792755 8.722430,494.393127 2.930490,477.392303 
	C2.721895,476.780029 1.662746,476.457550 1.000001,476.000000 
M223.483002,134.986023 
	C219.511826,139.912872 215.363449,144.708435 211.599380,149.788712 
	C192.727722,175.259399 178.345551,203.214325 166.701096,232.584549 
	C164.423935,238.328156 161.227188,240.843124 155.249023,242.463776 
	C141.312683,246.241837 127.438797,250.576324 114.053963,255.963394 
	C102.575363,260.583282 92.070137,267.486816 85.441589,278.456573 
	C83.568832,281.555878 82.248016,286.617981 83.550179,289.463867 
	C84.502136,291.544403 90.236069,292.439362 93.711288,292.177155 
	C104.656395,291.351379 115.538734,289.707001 126.450912,288.426697 
	C133.140869,287.641815 139.840988,286.943481 147.263870,286.126221 
	C146.684845,289.013824 146.423874,290.958008 145.900467,292.828735 
	C138.527817,319.179688 132.442108,345.793243 130.451538,373.158142 
	C129.533463,385.778900 128.840805,398.505920 132.808151,410.829132 
	C137.191895,424.445709 145.972900,429.883118 159.638977,426.035095 
	C168.680618,423.489166 177.389236,419.385101 185.816177,415.126282 
	C196.393188,409.780823 201.237793,400.263306 201.969620,388.696869 
	C202.505844,380.221893 202.233154,371.689240 202.925522,363.231812 
	C205.043564,337.359283 207.492950,311.514038 209.704483,285.648865 
	C210.013489,282.034760 211.593964,280.853760 215.124374,280.960114 
	C242.931168,281.798065 270.743073,282.466797 298.549866,283.304840 
	C304.178131,283.474487 304.543762,284.336914 303.030365,289.685547 
	C298.813995,304.587189 294.378448,319.435791 290.585175,334.445770 
	C286.494232,350.633728 283.449707,367.018646 286.006165,383.868896 
	C287.841675,395.967316 290.711853,407.764709 301.809357,414.891083 
	C312.660522,421.859283 325.071320,422.734863 337.513947,421.445099 
	C358.579834,419.261414 376.581909,409.729218 392.991333,396.921356 
	C409.167847,384.295258 421.932678,368.935333 429.496124,349.629852 
	C432.901581,340.937592 432.891113,331.992828 430.583099,323.106323 
	C428.879791,316.548035 424.746063,315.284760 419.486755,319.401855 
	C417.529602,320.933960 415.818695,322.784912 414.026093,324.522064 
	C403.022552,335.185394 392.248383,346.099579 380.933594,356.421356 
	C375.565338,361.318451 369.466492,365.603210 363.164154,369.238861 
	C355.697418,373.546173 349.758545,370.718231 348.487915,362.354828 
	C347.496765,355.831116 346.597473,348.890289 347.781311,342.530182 
	C349.748077,331.963684 352.967804,321.559937 356.458527,311.361023 
	C366.217194,282.849335 377.131317,254.712402 386.167023,225.980255 
	C394.127258,200.668060 397.412384,174.484863 391.949280,148.033966 
	C387.733978,127.624825 379.056671,109.259125 360.117096,98.792389 
	C333.908447,84.308472 306.014832,82.790649 278.116455,93.585587 
	C256.371429,101.999550 239.299026,117.231903 223.483002,134.986023 
z"/>
<path fill="#000000" opacity="1.000000" stroke="none" 
	d="
M37.531342,1.000000 
	C37.542465,1.662744 37.219982,2.721897 36.607727,2.930482 
	C19.606861,8.722383 8.207292,19.970646 2.856494,37.220451 
	C2.682948,37.779926 2.018265,38.187057 1.291265,38.332603 
	C1.000000,25.740049 1.000000,13.480098 1.000000,1.000000 
	C13.020000,1.000000 25.041342,1.000000 37.531342,1.000000 
z"/>
<path fill="#000000" opacity="1.000000" stroke="none" 
	d="
M513.000000,37.531342 
	C512.337219,37.542515 511.277954,37.220127 511.069305,36.607872 
	C505.276184,19.608355 494.028839,8.207914 476.779694,2.856370 
	C476.220184,2.682785 475.813019,2.018206 475.667419,1.291260 
	C488.259949,1.000000 500.519897,1.000000 513.000000,1.000000 
	C513.000000,13.020000 513.000000,25.041342 513.000000,37.531342 
z"/>
<path fill="#000000" opacity="1.000000" stroke="none" 
	d="
M1.000001,476.468658 
	C1.662746,476.457550 2.721895,476.780029 2.930490,477.392303 
	C8.722430,494.393127 19.970617,505.792755 37.220470,511.143494 
	C37.779942,511.317047 38.187057,511.981750 38.332603,512.708740 
	C25.740049,513.000000 13.480098,513.000000 1.000000,513.000000 
	C1.000000,500.980011 1.000000,488.958649 1.000001,476.468658 
z"/>
<path fill="#000000" opacity="1.000000" stroke="none" 
	d="
M476.468658,513.000000 
	C476.457489,512.337158 476.779846,511.277954 477.392120,511.069305 
	C494.391632,505.276154 505.792297,494.028992 511.143646,476.779633 
	C511.317230,476.220154 511.981781,475.812958 512.708740,475.667389 
	C513.000000,488.259949 513.000000,500.519897 513.000000,513.000000 
	C500.980011,513.000000 488.958649,513.000000 476.468658,513.000000 
z"/>
<path fill="#44BB44" opacity="1.000000" stroke="none" 
	d="
M223.724655,134.725708 
	C239.299026,117.231903 256.371429,101.999550 278.116455,93.585587 
	C306.014832,82.790649 333.908447,84.308472 360.117096,98.792389 
	C379.056671,109.259125 387.733978,127.624825 391.949280,148.033966 
	C397.412384,174.484863 394.127258,200.668060 386.167023,225.980255 
	C377.131317,254.712402 366.217194,282.849335 356.458527,311.361023 
	C352.967804,321.559937 349.748077,331.963684 347.781311,342.530182 
	C346.597473,348.890289 347.496765,355.831116 348.487915,362.354828 
	C349.758545,370.718231 355.697418,373.546173 363.164154,369.238861 
	C369.466492,365.603210 375.565338,361.318451 380.933594,356.421356 
	C392.248383,346.099579 403.022552,335.185394 414.026093,324.522064 
	C415.818695,322.784912 417.529602,320.933960 419.486755,319.401855 
	C424.746063,315.284760 428.879791,316.548035 430.583099,323.106323 
	C432.891113,331.992828 432.901581,340.937592 429.496124,349.629852 
	C421.932678,368.935333 409.167847,384.295258 392.991333,396.921356 
	C376.581909,409.729218 358.579834,419.261414 337.513947,421.445099 
	C325.071320,422.734863 312.660522,421.859283 301.809357,414.891083 
	C290.711853,407.764709 287.841675,395.967316 286.006165,383.868896 
	C283.449707,367.018646 286.494232,350.633728 290.585175,334.445770 
	C294.378448,319.435791 298.813995,304.587189 303.030365,289.685547 
	C304.543762,284.336914 304.178131,283.474487 298.549866,283.304840 
	C270.743073,282.466797 242.931168,281.798065 215.124374,280.960114 
	C211.593964,280.853760 210.013489,282.034760 209.704483,285.648865 
	C207.492950,311.514038 205.043564,337.359283 202.925522,363.231812 
	C202.233154,371.689240 202.505844,380.221893 201.969620,388.696869 
	C201.237793,400.263306 196.393188,409.780823 185.816177,415.126282 
	C177.389236,419.385101 168.680618,423.489166 159.638977,426.035095 
	C145.972900,429.883118 137.191895,424.445709 132.808151,410.829132 
	C128.840805,398.505920 129.533463,385.778900 130.451538,373.158142 
	C132.442108,345.793243 138.527817,319.179688 145.900467,292.828735 
	C146.423874,290.958008 146.684845,289.013824 147.263870,286.126221 
	C139.840988,286.943481 133.140869,287.641815 126.450912,288.426697 
	C115.538734,289.707001 104.656395,291.351379 93.711288,292.177155 
	C90.236069,292.439362 84.502136,291.544403 83.550179,289.463867 
	C82.248016,286.617981 83.568832,281.555878 85.441589,278.456573 
	C92.070137,267.486816 102.575363,260.583282 114.053963,255.963394 
	C127.438797,250.576324 141.312683,246.241837 155.249023,242.463776 
	C161.227188,240.843124 164.423935,238.328156 166.701096,232.584549 
	C178.345551,203.214325 192.727722,175.259399 211.599380,149.788712 
	C215.363449,144.708435 219.511826,139.912872 223.724655,134.725708 
M291.500000,237.998352 
	C299.493286,238.053467 307.488770,238.016373 315.478729,238.209503 
	C318.635193,238.285782 320.428406,237.213074 321.207977,234.050705 
	C323.677124,224.034058 326.621155,214.123489 328.768341,204.041321 
	C331.318573,192.066483 331.976532,179.962540 328.863770,167.902023 
	C325.778137,155.946671 318.348175,148.744003 306.393036,147.661041 
	C286.860962,145.891724 270.396545,153.050186 256.934418,166.898132 
	C238.446854,185.915497 228.172653,209.454041 220.898224,234.517471 
	C220.732910,235.087082 220.956253,235.769501 221.032913,236.918121 
	C244.294785,237.279053 267.397400,237.637527 291.500000,237.998352 
z"/>
<path fill="#888888" opacity="1.000000" stroke="none" 
	d="
M291.000000,237.997177 
	C267.397400,237.637527 244.294785,237.279053 221.032913,236.918121 
	C220.956253,235.769501 220.732910,235.087082 220.898224,234.517471 
	C228.172653,209.454041 238.446854,185.915497 256.934418,166.898132 
	C270.396545,153.050186 286.860962,145.891724 306.393036,147.661041 
	C318.348175,148.744003 325.778137,155.946671 328.863770,167.902023 
	C331.976532,179.962540 331.318573,192.066483 328.768341,204.041321 
	C326.621155,214.123489 323.677124,224.034058 321.207977,234.050705 
	C320.428406,237.213074 318.635193,238.285782 315.478729,238.209503 
	C307.488770,238.016373 299.493286,238.053467 291.000000,237.997177 
z"/>
</svg>